<svg width="18" height="18" viewBox="0 0 18 18" fill="none" xmlns="http://www.w3.org/2000/svg">
<path fill-rule="evenodd" clip-rule="evenodd" d="M12.2922 11.2227L16.7839 15.7144C16.9418 15.8724 17.0304 16.0866 17.0304 16.3099C17.0303 16.5333 16.9415 16.7475 16.7835 16.9053C16.6255 17.0632 16.4113 17.1519 16.1879 17.1518C15.9646 17.1517 15.7504 17.0629 15.5925 16.9049L11.1009 12.4132C9.75813 13.4532 8.06963 13.9426 6.37887 13.7819C4.6881 13.6212 3.12207 12.8224 1.99936 11.548C0.876652 10.2736 0.281595 8.61937 0.335246 6.92183C0.388896 5.22428 1.08722 3.61094 2.28817 2.40999C3.48911 1.20905 5.10246 0.510723 6.8 0.457072C8.49754 0.403421 10.1518 0.998478 11.4261 2.12119C12.7005 3.2439 13.4993 4.80993 13.6601 6.50069C13.8208 8.19146 13.3314 9.87996 12.2914 11.2227H12.2922ZM7.0116 12.1419C8.34015 12.1419 9.61429 11.6141 10.5537 10.6747C11.4931 9.73528 12.0209 8.46115 12.0209 7.1326C12.0209 5.80405 11.4931 4.52991 10.5537 3.59048C9.61429 2.65106 8.34015 2.12329 7.0116 2.12329C5.68305 2.12329 4.40892 2.65106 3.46949 3.59048C2.53006 4.52991 2.0023 5.80405 2.0023 7.1326C2.0023 8.46115 2.53006 9.73528 3.46949 10.6747C4.40892 11.6141 5.68305 12.1419 7.0116 12.1419Z" fill="white"/>
</svg>
