<svg width="17" height="13" viewBox="0 0 17 13" fill="none" xmlns="http://www.w3.org/2000/svg">
<path d="M16.3141 2.93236H3.96835L3.51193 0.594575C3.48591 0.466957 3.41595 0.352505 3.31425 0.271142C3.21255 0.189779 3.08553 0.146657 2.95531 0.149283H0.728851V1.26251H2.49889L4.62516 11.9495C4.65118 12.0771 4.72113 12.1916 4.82284 12.273C4.92454 12.3543 5.05156 12.3974 5.18177 12.3948H15.2009V11.2816H5.6382L5.18177 9.05513H15.2009C15.3295 9.05828 15.4553 9.01673 15.5568 8.93757C15.6583 8.85841 15.7292 8.74653 15.7575 8.62097L16.8707 3.61143C16.8894 3.52884 16.8889 3.44309 16.8694 3.36069C16.8499 3.2783 16.8119 3.20144 16.7582 3.13595C16.7046 3.07047 16.6367 3.0181 16.5597 2.98282C16.4827 2.94754 16.3987 2.93028 16.3141 2.93236ZM14.7556 7.9419H4.97026L4.191 4.04559H15.6183L14.7556 7.9419Z" fill="white"/>
</svg>
