<svg width="9" height="8" viewBox="0 0 9 8" fill="none" xmlns="http://www.w3.org/2000/svg">
<path fill-rule="evenodd" clip-rule="evenodd" d="M0.631165 3.93234C0.631165 3.80055 0.686137 3.67417 0.783987 3.58098C0.881838 3.4878 1.01455 3.43545 1.15293 3.43545H7.19814L4.95767 1.3028C4.8597 1.2095 4.80465 1.08296 4.80465 0.951007C4.80465 0.819058 4.8597 0.692513 4.95767 0.59921C5.05564 0.505908 5.18853 0.453491 5.32708 0.453491C5.46564 0.453491 5.59852 0.505908 5.69649 0.59921L8.82711 3.58054C8.8757 3.6267 8.91425 3.68153 8.94055 3.7419C8.96686 3.80226 8.9804 3.86698 8.9804 3.93234C8.9804 3.9977 8.96686 4.06241 8.94055 4.12278C8.91425 4.18315 8.8757 4.23798 8.82711 4.28413L5.69649 7.26546C5.59852 7.35877 5.46564 7.41118 5.32708 7.41118C5.18853 7.41118 5.05564 7.35877 4.95767 7.26546C4.8597 7.17216 4.80465 7.04562 4.80465 6.91367C4.80465 6.78172 4.8597 6.65517 4.95767 6.56187L7.19814 4.42923H1.15293C1.01455 4.42923 0.881838 4.37688 0.783987 4.28369C0.686137 4.19051 0.631165 4.06412 0.631165 3.93234Z" fill="white"/>
</svg>
